# Blender 4.3.2
# www.blender.org
mtllib domo.mtl
o Icosphere
v 0.951058 -0.000000 0.309013
v 0.956626 0.251149 0.147618
v 0.956626 0.251149 -0.147618
v 0.951058 0.000000 -0.309013
v 0.000000 -0.000000 1.000000
v 0.155215 0.251152 0.955422
v 0.436007 0.251152 0.864188
v 0.587786 0.000000 0.809017
v -0.951058 -0.000000 0.309013
v -0.860698 0.251151 0.442858
v -0.687159 0.251152 0.681715
v -0.587786 0.000000 0.809017
v -0.587786 -0.000000 -0.809017
v -0.687159 0.251152 -0.681715
v -0.860698 0.251151 -0.442858
v -0.951058 0.000000 -0.309013
v 0.587786 -0.000000 -0.809017
v 0.436007 0.251152 -0.864188
v 0.155215 0.251152 -0.955422
v 0.000000 0.000000 -1.000000
v 0.483971 0.502302 0.716565
v 0.688189 0.525736 0.499997
v 0.831051 0.502299 0.238853
v -0.531941 0.502302 0.681712
v -0.262869 0.525738 0.809012
v 0.029639 0.502302 0.864184
v -0.812729 0.502301 -0.295238
v -0.850648 0.525736 0.000000
v -0.812729 0.502301 0.295238
v 0.029639 0.502302 -0.864184
v -0.262869 0.525738 -0.809012
v -0.531941 0.502302 -0.681712
v 0.831051 0.502299 -0.238853
v 0.688189 0.525736 -0.499997
v 0.483971 0.502302 -0.716565
v 0.232822 0.657519 0.716563
v 0.162456 0.850654 0.499995
v 0.077607 0.967950 0.238853
v 0.251147 0.967949 0.000000
v 0.525730 0.850652 0.000000
v 0.753442 0.657515 0.000000
v -0.609547 0.657519 0.442856
v -0.425323 0.850654 0.309011
v -0.203181 0.967950 0.147618
v -0.609547 0.657519 -0.442856
v -0.425323 0.850654 -0.309011
v -0.203181 0.967950 -0.147618
v 0.232822 0.657519 -0.716563
v 0.162456 0.850654 -0.499995
v 0.077607 0.967950 -0.238853
v 0.000000 1.000000 0.000000
v 0.894426 0.447216 0.000000
v 0.276388 0.447220 -0.850649
v -0.723607 0.447220 -0.525725
v -0.723607 0.447220 0.525725
v 0.276388 0.447220 0.850649
v 1.000000 0.000000 0.000000
v 0.309017 0.000000 0.951056
v -0.809018 0.000000 0.587783
v -0.809018 -0.000000 -0.587783
v 0.309017 -0.000000 -0.951056
v 0.670820 0.276396 0.688190
v 0.809019 -0.000002 0.587783
v 0.861804 0.276394 0.425323
v -0.447216 0.276397 0.850648
v -0.309017 -0.000001 0.951056
v -0.138199 0.276397 0.951055
v -0.947213 0.276396 -0.162458
v -1.000000 0.000001 0.000000
v -0.947213 0.276397 0.162458
v -0.138199 0.276397 -0.951055
v -0.309016 -0.000000 -0.951057
v -0.447215 0.276397 -0.850649
v 0.861804 0.276396 -0.425322
v 0.809019 0.000000 -0.587782
v 0.670821 0.276397 -0.688189
v 0.361800 0.894429 0.262863
v 0.447209 0.723612 0.525728
v 0.638194 0.723610 0.262864
v -0.138197 0.894430 0.425319
v -0.361804 0.723612 0.587778
v -0.052790 0.723612 0.688185
v -0.447210 0.894429 0.000000
v -0.670817 0.723611 -0.162457
v -0.670817 0.723611 0.162457
v -0.138197 0.894430 -0.425319
v -0.052790 0.723612 -0.688185
v -0.361804 0.723612 -0.587778
v 0.361800 0.894429 -0.262863
v 0.638194 0.723610 -0.262864
v 0.447209 0.723612 -0.525728
vn 0.1387 0.3987 0.9065
vn 0.0160 0.3485 0.9372
vn 0.0004 0.1745 0.9846
vn -0.1557 0.0962 0.9831
vn -0.1323 0.4399 0.8883
vn -0.2882 0.3611 0.8869
vn -0.3035 0.1876 0.9342
vn -0.4519 0.0962 0.8869
vn -0.4151 0.4399 0.7964
vn -0.5638 0.3485 0.7488
vn -0.5791 0.1745 0.7964
vn -0.6451 0.3987 0.6519
vn 0.9050 0.3987 0.1482
vn 0.8963 0.3485 0.2744
vn 0.9366 0.1745 0.3039
vn 0.8869 0.0962 0.4519
vn 0.8039 0.4399 0.4003
vn 0.7544 0.3611 0.5481
vn 0.7947 0.1876 0.5773
vn 0.7038 0.0962 0.7038
vn 0.6291 0.4399 0.6409
vn 0.5379 0.3485 0.7676
vn 0.5785 0.1745 0.7968
vn 0.4206 0.3987 0.8149
vn 0.1560 0.0784 -0.9846
vn 0.3045 0.1702 -0.9372
vn 0.4526 0.0784 -0.8883
vn 0.2945 0.3024 -0.9065
vn -0.8883 0.0784 -0.4526
vn -0.7972 0.1702 -0.5792
vn -0.7049 0.0784 -0.7049
vn -0.7711 0.3024 -0.5603
vn -0.7049 0.0784 0.7049
vn -0.7972 0.1702 0.5792
vn -0.8883 0.0784 0.4526
vn -0.7711 0.3024 0.5603
vn 0.4526 0.0784 0.8883
vn 0.3045 0.1702 0.9372
vn 0.1560 0.0784 0.9846
vn 0.2945 0.3024 0.9065
vn 0.9846 0.0784 -0.1560
vn 0.9854 0.1702 -0.0000
vn 0.9846 0.0784 0.1560
vn 0.9532 0.3024 -0.0000
vn 0.8271 0.5545 -0.0916
vn 0.1685 0.5545 -0.8149
vn -0.7230 0.5545 -0.4121
vn -0.6153 0.5545 0.5603
vn 0.3427 0.5545 0.7583
vn -0.8193 0.3987 -0.4121
vn -0.9363 0.1745 -0.3046
vn -0.8864 0.3485 -0.3049
vn -0.8857 0.4399 -0.1487
vn -0.9831 0.0962 -0.1557
vn -0.9822 0.1876 -0.0000
vn -0.9325 0.3611 -0.0000
vn -0.8857 0.4399 0.1487
vn -0.9831 0.0962 0.1557
vn -0.9363 0.1745 0.3046
vn -0.8864 0.3485 0.3049
vn -0.8193 0.3987 0.4121
vn 0.1387 0.3987 -0.9065
vn 0.0004 0.1745 -0.9846
vn 0.0160 0.3485 -0.9372
vn -0.1323 0.4399 -0.8883
vn -0.1557 0.0962 -0.9831
vn -0.3035 0.1876 -0.9342
vn -0.2882 0.3611 -0.8869
vn -0.4151 0.4399 -0.7964
vn -0.4519 0.0962 -0.8869
vn -0.5791 0.1745 -0.7964
vn -0.5638 0.3485 -0.7488
vn -0.6451 0.3987 -0.6519
vn 0.9050 0.3987 -0.1482
vn 0.9366 0.1745 -0.3039
vn 0.8963 0.3485 -0.2743
vn 0.8039 0.4399 -0.4003
vn 0.8869 0.0962 -0.4519
vn 0.7947 0.1876 -0.5773
vn 0.7544 0.3611 -0.5481
vn 0.6291 0.4399 -0.6409
vn 0.7038 0.0962 -0.7038
vn 0.5785 0.1745 -0.7968
vn 0.5379 0.3485 -0.7676
vn 0.4206 0.3987 -0.8149
vn 0.1261 0.9878 0.0916
vn 0.2079 0.9158 0.3438
vn 0.2860 0.7594 0.5843
vn 0.2334 0.9575 0.1696
vn 0.3912 0.9158 0.0915
vn 0.3338 0.8363 0.4350
vn 0.4911 0.7947 0.3568
vn 0.5168 0.8363 0.1830
vn 0.6441 0.7594 0.0915
vn 0.3936 0.6369 0.6628
vn 0.5513 0.5955 0.5843
vn 0.5987 0.6726 0.4350
vn 0.7261 0.5955 0.3438
vn 0.7520 0.6369 0.1696
vn 0.8271 0.5545 0.0916
vn -0.0482 0.9878 0.1482
vn -0.2627 0.9158 0.3039
vn -0.4674 0.7594 0.4526
vn -0.0891 0.9575 0.2743
vn 0.0339 0.9158 0.4003
vn -0.3105 0.8363 0.4519
vn -0.1876 0.7947 0.5773
vn -0.0144 0.8363 0.5481
vn 0.1121 0.7594 0.6409
vn -0.5087 0.6369 0.5792
vn -0.3854 0.5955 0.7049
vn -0.2287 0.6726 0.7038
vn -0.1026 0.5955 0.7968
vn 0.0711 0.6369 0.7676
vn 0.1685 0.5545 0.8149
vn -0.1558 0.9878 -0.0000
vn -0.3702 0.9158 -0.1560
vn -0.5749 0.7594 -0.3046
vn -0.2885 0.9575 -0.0000
vn -0.3702 0.9158 0.1560
vn -0.5257 0.8363 -0.1557
vn -0.6071 0.7947 -0.0000
vn -0.5257 0.8363 0.1557
vn -0.5749 0.7594 0.3046
vn -0.7081 0.6369 -0.3049
vn -0.7895 0.5955 -0.1487
vn -0.7400 0.6726 -0.0000
vn -0.7895 0.5955 0.1487
vn -0.7081 0.6369 0.3049
vn -0.7230 0.5545 0.4121
vn -0.0482 0.9878 -0.1482
vn 0.0339 0.9158 -0.4003
vn 0.1121 0.7594 -0.6409
vn -0.0891 0.9575 -0.2743
vn -0.2627 0.9158 -0.3039
vn -0.0144 0.8363 -0.5481
vn -0.1876 0.7947 -0.5773
vn -0.3105 0.8363 -0.4519
vn -0.4674 0.7594 -0.4526
vn 0.0711 0.6369 -0.7676
vn -0.1026 0.5955 -0.7968
vn -0.2287 0.6726 -0.7038
vn -0.3854 0.5955 -0.7049
vn -0.5087 0.6369 -0.5792
vn -0.6153 0.5545 -0.5603
vn 0.1261 0.9878 -0.0916
vn 0.3912 0.9158 -0.0915
vn 0.6441 0.7594 -0.0915
vn 0.2334 0.9575 -0.1696
vn 0.2079 0.9158 -0.3438
vn 0.5168 0.8363 -0.1830
vn 0.4911 0.7947 -0.3568
vn 0.3338 0.8363 -0.4350
vn 0.2860 0.7594 -0.5843
vn 0.7520 0.6369 -0.1696
vn 0.7261 0.5955 -0.3438
vn 0.5987 0.6726 -0.4350
vn 0.5513 0.5955 -0.5843
vn 0.3936 0.6369 -0.6628
vn 0.3427 0.5545 -0.7583
vt 0.159092 0.275556
vt 0.181819 0.314921
vt 0.136364 0.314921
vt 0.113637 0.275556
vt 0.136364 0.236191
vt 0.090910 0.236191
vt 0.090909 0.314921
vt 0.068182 0.275556
vt 0.045455 0.236191
vt 0.045455 0.314921
vt 0.022727 0.275556
vt 0.000000 0.314921
vt 0.340910 0.275556
vt 0.363637 0.314921
vt 0.318182 0.314921
vt 0.295455 0.275556
vt 0.318182 0.236191
vt 0.272728 0.236191
vt 0.272728 0.314921
vt 0.250001 0.275556
vt 0.227273 0.236191
vt 0.227273 0.314921
vt 0.204546 0.275556
vt 0.545455 0.236191
vt 0.590909 0.236191
vt 0.568182 0.275556
vt 0.522728 0.275556
vt 0.500000 0.236191
vt 0.545455 0.314921
vt 0.727273 0.236191
vt 0.772727 0.236191
vt 0.750000 0.275556
vt 0.704546 0.275556
vt 0.681818 0.236191
vt 0.727273 0.314921
vt 0.909091 0.236191
vt 0.954545 0.236191
vt 0.931818 0.275556
vt 0.886364 0.275556
vt 0.863636 0.236191
vt 0.909091 0.314921
vt 0.181819 0.236191
vt 0.363637 0.236191
vt 0.409091 0.236191
vt 0.386364 0.275556
vt 0.409091 0.314921
vt 0.386364 0.354286
vt 0.590909 0.314921
vt 0.568182 0.354286
vt 0.772727 0.314921
vt 0.750000 0.354286
vt 0.022727 0.354286
vt 0.204546 0.354286
vt 0.795455 0.275556
vt 0.818182 0.314921
vt 0.818182 0.236191
vt 0.840909 0.275556
vt 0.863636 0.314921
vt 0.613637 0.275556
vt 0.636364 0.314921
vt 0.636364 0.236191
vt 0.659091 0.275556
vt 0.681818 0.314921
vt 0.431819 0.275556
vt 0.454546 0.314921
vt 0.454546 0.236191
vt 0.477273 0.275556
vt 0.500000 0.314921
vt 0.250001 0.433017
vt 0.295455 0.433017
vt 0.272728 0.472382
vt 0.227273 0.393651
vt 0.272728 0.393651
vt 0.250001 0.354286
vt 0.318182 0.393651
vt 0.295455 0.354286
vt 0.340910 0.354286
vt 0.068182 0.433017
vt 0.113637 0.433017
vt 0.090910 0.472382
vt 0.045455 0.393651
vt 0.090910 0.393651
vt 0.068182 0.354286
vt 0.136365 0.393651
vt 0.113637 0.354286
vt 0.159092 0.354286
vt 0.795455 0.433017
vt 0.840909 0.433017
vt 0.818182 0.472382
vt 0.772727 0.393651
vt 0.818182 0.393651
vt 0.795455 0.354286
vt 0.863636 0.393651
vt 0.840909 0.354286
vt 0.886364 0.354286
vt 0.613637 0.433017
vt 0.659091 0.433017
vt 0.636364 0.472382
vt 0.590909 0.393651
vt 0.636364 0.393651
vt 0.613637 0.354286
vt 0.681818 0.393651
vt 0.659091 0.354286
vt 0.704546 0.354286
vt 0.431819 0.433017
vt 0.477273 0.433017
vt 0.454546 0.472382
vt 0.409091 0.393651
vt 0.454546 0.393651
vt 0.431819 0.354286
vt 0.500000 0.393651
vt 0.477273 0.354286
vt 0.522728 0.354286
s 0
f 6/1/1 56/2/1 26/3/1
f 67/4/2 6/1/2 26/3/2
f 5/5/3 6/1/3 67/4/3
f 66/6/4 5/5/4 67/4/4
f 67/4/5 26/3/5 25/7/5
f 65/8/6 67/4/6 25/7/6
f 66/6/7 67/4/7 65/8/7
f 12/9/8 66/6/8 65/8/8
f 65/8/9 25/7/9 24/10/9
f 11/11/10 65/8/10 24/10/10
f 12/9/11 65/8/11 11/11/11
f 11/11/12 24/10/12 55/12/12
f 2/13/13 52/14/13 23/15/13
f 64/16/14 2/13/14 23/15/14
f 1/17/15 2/13/15 64/16/15
f 63/18/16 1/17/16 64/16/16
f 64/16/17 23/15/17 22/19/17
f 62/20/18 64/16/18 22/19/18
f 63/18/19 64/16/19 62/20/19
f 8/21/20 63/18/20 62/20/20
f 62/20/21 22/19/21 21/22/21
f 7/23/22 62/20/22 21/22/22
f 8/21/23 62/20/23 7/23/23
f 7/23/24 21/22/24 56/2/24
f 61/24/25 20/25/25 19/26/25
f 18/27/26 61/24/26 19/26/26
f 17/28/27 61/24/27 18/27/27
f 18/27/28 19/26/28 53/29/28
f 60/30/29 16/31/29 15/32/29
f 14/33/30 60/30/30 15/32/30
f 13/34/31 60/30/31 14/33/31
f 14/33/32 15/32/32 54/35/32
f 59/36/33 12/37/33 11/38/33
f 10/39/34 59/36/34 11/38/34
f 9/40/35 59/36/35 10/39/35
f 10/39/36 11/38/36 55/41/36
f 58/42/37 8/21/37 7/23/37
f 6/1/38 58/42/38 7/23/38
f 5/5/39 58/42/39 6/1/39
f 6/1/40 7/23/40 56/2/40
f 57/43/41 4/44/41 3/45/41
f 2/13/42 57/43/42 3/45/42
f 1/17/43 57/43/43 2/13/43
f 2/13/44 3/45/44 52/14/44
f 52/14/45 33/46/45 41/47/45
f 53/29/46 30/48/46 48/49/46
f 54/35/47 27/50/47 45/51/47
f 55/12/48 24/10/48 42/52/48
f 56/2/49 21/22/49 36/53/49
f 15/32/50 27/50/50 54/35/50
f 16/31/51 68/54/51 15/32/51
f 15/32/52 68/54/52 27/50/52
f 68/54/53 28/55/53 27/50/53
f 16/31/54 69/56/54 68/54/54
f 69/56/55 70/57/55 68/54/55
f 68/54/56 70/57/56 28/55/56
f 70/57/57 29/58/57 28/55/57
f 69/56/58 9/40/58 70/57/58
f 9/40/59 10/39/59 70/57/59
f 70/57/60 10/39/60 29/58/60
f 10/39/61 55/41/61 29/58/61
f 19/26/62 30/48/62 53/29/62
f 20/25/63 71/59/63 19/26/63
f 19/26/64 71/59/64 30/48/64
f 71/59/65 31/60/65 30/48/65
f 20/25/66 72/61/66 71/59/66
f 72/61/67 73/62/67 71/59/67
f 71/59/68 73/62/68 31/60/68
f 73/62/69 32/63/69 31/60/69
f 72/61/70 13/34/70 73/62/70
f 13/34/71 14/33/71 73/62/71
f 73/62/72 14/33/72 32/63/72
f 14/33/73 54/35/73 32/63/73
f 3/45/74 33/46/74 52/14/74
f 4/44/75 74/64/75 3/45/75
f 3/45/76 74/64/76 33/46/76
f 74/64/77 34/65/77 33/46/77
f 4/44/78 75/66/78 74/64/78
f 75/66/79 76/67/79 74/64/79
f 74/64/80 76/67/80 34/65/80
f 76/67/81 35/68/81 34/65/81
f 75/66/82 17/28/82 76/67/82
f 17/28/83 18/27/83 76/67/83
f 76/67/84 18/27/84 35/68/84
f 18/27/85 53/29/85 35/68/85
f 38/69/86 39/70/86 51/71/86
f 37/72/87 77/73/87 38/69/87
f 36/53/88 78/74/88 37/72/88
f 38/69/89 77/73/89 39/70/89
f 77/73/90 40/75/90 39/70/90
f 37/72/91 78/74/91 77/73/91
f 78/74/92 79/76/92 77/73/92
f 77/73/93 79/76/93 40/75/93
f 79/76/94 41/77/94 40/75/94
f 36/53/95 21/22/95 78/74/95
f 21/22/96 22/19/96 78/74/96
f 78/74/97 22/19/97 79/76/97
f 22/19/98 23/15/98 79/76/98
f 79/76/99 23/15/99 41/77/99
f 23/15/100 52/14/100 41/77/100
f 44/78/101 38/79/101 51/80/101
f 43/81/102 80/82/102 44/78/102
f 42/52/103 81/83/103 43/81/103
f 44/78/104 80/82/104 38/79/104
f 80/82/105 37/84/105 38/79/105
f 43/81/106 81/83/106 80/82/106
f 81/83/107 82/85/107 80/82/107
f 80/82/108 82/85/108 37/84/108
f 82/85/109 36/86/109 37/84/109
f 42/52/110 24/10/110 81/83/110
f 24/10/111 25/7/111 81/83/111
f 81/83/112 25/7/112 82/85/112
f 25/7/113 26/3/113 82/85/113
f 82/85/114 26/3/114 36/86/114
f 26/3/115 56/2/115 36/86/115
f 47/87/116 44/88/116 51/89/116
f 46/90/117 83/91/117 47/87/117
f 45/51/118 84/92/118 46/90/118
f 47/87/119 83/91/119 44/88/119
f 83/91/120 43/93/120 44/88/120
f 46/90/121 84/92/121 83/91/121
f 84/92/122 85/94/122 83/91/122
f 83/91/123 85/94/123 43/93/123
f 85/94/124 42/95/124 43/93/124
f 45/51/125 27/50/125 84/92/125
f 27/50/126 28/55/126 84/92/126
f 84/92/127 28/55/127 85/94/127
f 28/55/128 29/58/128 85/94/128
f 85/94/129 29/58/129 42/95/129
f 29/58/130 55/41/130 42/95/130
f 50/96/131 47/97/131 51/98/131
f 49/99/132 86/100/132 50/96/132
f 48/49/133 87/101/133 49/99/133
f 50/96/134 86/100/134 47/97/134
f 86/100/135 46/102/135 47/97/135
f 49/99/136 87/101/136 86/100/136
f 87/101/137 88/103/137 86/100/137
f 86/100/138 88/103/138 46/102/138
f 88/103/139 45/104/139 46/102/139
f 48/49/140 30/48/140 87/101/140
f 30/48/141 31/60/141 87/101/141
f 87/101/142 31/60/142 88/103/142
f 31/60/143 32/63/143 88/103/143
f 88/103/144 32/63/144 45/104/144
f 32/63/145 54/35/145 45/104/145
f 39/105/146 50/106/146 51/107/146
f 40/108/147 89/109/147 39/105/147
f 41/47/148 90/110/148 40/108/148
f 39/105/149 89/109/149 50/106/149
f 89/109/150 49/111/150 50/106/150
f 40/108/151 90/110/151 89/109/151
f 90/110/152 91/112/152 89/109/152
f 89/109/153 91/112/153 49/111/153
f 91/112/154 48/113/154 49/111/154
f 41/47/155 33/46/155 90/110/155
f 33/46/156 34/65/156 90/110/156
f 90/110/157 34/65/157 91/112/157
f 34/65/158 35/68/158 91/112/158
f 91/112/159 35/68/159 48/113/159
f 35/68/160 53/29/160 48/113/160
