<?xml version="1.0" encoding="UTF-8" standalone="no"?>
<!-- Created with Inkscape (http://www.inkscape.org/) -->

<svg
   width="187.16559mm"
   height="37.104847mm"
   viewBox="0 0 187.16559 37.104847"
   version="1.1"
   id="svg1"
   xml:space="preserve"
   xmlns="http://www.w3.org/2000/svg"
   xmlns:svg="http://www.w3.org/2000/svg"><defs
     id="defs1" /><g
     id="layer1"
     transform="translate(-11.417212,-20.334543)"><path
       style="fill:#000000;stroke-width:0.518122"
       d="m 19.559655,57.158359 -0.905262,-0.248341 -1.379514,-0.677164 -1.37951,-0.677165 -1.280595,-1.297226 -1.280594,-1.297232 -0.666698,-1.27947 -0.666699,-1.279476 -0.291785,-0.992778 -0.291786,-0.992778 v -2.127035 -2.127029 l 0.291786,-0.992778 0.291785,-0.992784 0.664957,-1.27947 0.664963,-1.279475 1.28233,-1.282331 1.282336,-1.282336 1.296325,-0.677376 1.296325,-0.677383 1.072543,-0.279365 1.072548,-0.279362 1.926501,0.0021 1.9265,0.0021 0.914853,0.243656 0.914848,0.243653 0.86118,0.380938 0.861181,0.380944 0.828611,0.5701 0.828611,0.570099 v -8.59953 -8.599522 h 2.111496 2.111496 l -0.06307,13.845722 -0.06307,13.845719 -0.306536,1.038954 -0.306542,1.038952 -0.548085,1.154427 -0.54809,1.154433 -0.91922,1.131624 -0.919215,1.131625 -1.41697,0.930748 -1.416965,0.930754 -1.425995,0.450874 -1.425995,0.450875 -2.046861,-0.01632 -2.04686,-0.01632 z m 6.033382,-4.376134 1.086455,-0.530779 0.914562,-0.924583 0.914558,-0.924578 0.544856,-1.096687 0.544857,-1.096693 -5.18e-4,-1.919211 -5.18e-4,-1.919205 -0.533728,-1.096693 -0.533727,-1.096693 -0.925138,-0.924577 -0.925137,-0.924578 -1.096687,-0.537675 -1.096693,-0.537677 h -1.919206 -1.919211 l -1.04516,0.489864 -1.045155,0.489868 -0.921339,0.861803 -0.921345,0.861807 -0.546707,1.115884 -0.546706,1.115884 -0.192088,1.050994 -0.192089,1.050994 0.190711,1.031658 0.19071,1.031653 0.441911,0.96526 0.441916,0.965267 0.782686,0.849113 0.782684,0.849113 0.793923,0.465269 0.793923,0.465273 0.770234,0.251009 0.770236,0.251009 1.655273,-0.05067 1.655269,-0.05067 z M 43.47608,56.987467 42.177268,56.544893 41.073482,55.897982 39.969701,55.25107 38.86688,54.137937 37.764058,53.024805 37.023475,51.601312 36.282887,50.177814 36.007744,49.010579 35.732596,47.84334 l -0.0026,-1.498953 -0.0026,-1.498952 0.198177,-0.968602 0.198176,-0.968603 0.801208,-1.670191 0.801208,-1.670191 1.106143,-1.106149 1.106148,-1.106143 1.049212,-0.637362 1.049212,-0.637362 1.401337,-0.470413 1.401333,-0.470414 h 1.985666 1.985665 l 1.0436,0.271823 1.043601,0.271822 1.325273,0.664895 1.325266,0.66489 1.373463,1.393753 1.373458,1.393753 0.695428,1.431109 0.695423,1.431109 0.258408,1.219228 0.258413,1.219228 v 1.188079 1.188085 l -0.26503,1.250859 -0.26503,1.250865 -0.691401,1.398561 -0.691403,1.398566 -1.370862,1.381587 -1.370867,1.381587 -1.296325,0.670428 -1.296324,0.670429 -1.072543,0.279361 -1.072548,0.279366 -2.017893,-0.0047 -2.017892,-0.0047 z m 6.558073,-4.266385 1.200867,-0.591182 0.882527,-0.968261 0.882526,-0.968261 0.418384,-0.84374 0.418383,-0.843735 0.195187,-1.108107 0.195187,-1.108102 -0.191208,-1.085527 -0.191213,-1.085527 -0.499117,-1.019326 -0.499112,-1.019322 -0.973757,-0.920941 -0.973758,-0.920936 -1.051477,-0.492759 -1.051481,-0.49276 h -1.919205 -1.919212 l -1.085164,0.548345 -1.085164,0.548348 -0.88718,0.863595 -0.887185,0.863595 -0.586597,1.238394 -0.586602,1.238394 0.0021,1.736427 0.0021,1.736428 0.477605,1.005301 0.477604,1.005301 0.548914,0.744054 0.548914,0.744054 0.982198,0.650958 0.982192,0.650952 0.822519,0.297418 0.822518,0.297412 1.663632,-0.05465 1.663631,-0.05466 z m 10.006194,-1.359189 0.0031,-6.0775 0.267708,-1.27947 0.267708,-1.279471 0.760654,-1.543033 0.76066,-1.543029 1.298931,-1.292947 1.298931,-1.292952 1.296325,-0.677376 1.296325,-0.677383 1.072543,-0.279365 1.072549,-0.279362 h 1.962758 1.962764 l 1.440327,0.454999 1.440326,0.455 1.130382,0.730603 1.130385,0.730603 0.822669,0.822668 0.822668,0.822669 0.713548,1.103993 0.713546,1.103998 0.41714,1.137412 0.41714,1.137412 0.06678,6.900013 0.06678,6.900013 h -2.013856 -2.013856 l -0.0543,-6.534453 -0.0543,-6.534446 -0.537122,-1.096693 -0.537116,-1.096693 -0.967494,-0.968188 -0.967499,-0.968188 -1.05433,-0.494065 -1.054332,-0.494066 h -1.92305 -1.923055 l -1.203431,0.592447 -1.203431,0.592446 -0.860906,0.920381 -0.860906,0.920376 -0.582156,1.228901 -0.582156,1.228903 -0.06016,6.351668 -0.06016,6.35167 h -1.99612 -1.996137 z m 32.257816,5.640589 -1.279476,-0.420549 -1.11134,-0.658527 -1.111345,-0.658528 -1.240544,-1.315039 -1.240543,-1.315045 -0.612545,-1.299035 -0.612544,-1.299035 -0.279946,-1.089397 -0.279946,-1.089398 v -1.568235 -1.56823 l 0.282816,-1.085796 0.282812,-1.085802 0.492754,-1.100289 0.492749,-1.100288 0.793514,-0.975976 0.793514,-0.97597 0.578607,-0.53624 0.578608,-0.536245 1.188078,-0.706677 1.188084,-0.706682 1.253031,-0.385747 1.253031,-0.385747 h 2.049559 2.049567 l 0.992474,0.294734 0.992473,0.294734 1.188385,0.618984 1.18838,0.618989 0.41127,0.296656 0.41125,0.296657 V 28.947721 20.33468 h 2.01061 2.0106 v 13.442169 13.442169 l -0.28241,1.367209 -0.2824,1.367204 -0.35138,0.819726 -0.35138,0.819726 -0.72918,1.073776 -0.72918,1.07377 -1.04021,0.927122 -1.0402,0.927117 -1.22363,0.642999 -1.223624,0.642994 -1.072542,0.279361 -1.072542,0.279366 -2.017899,-0.0082 -2.017888,-0.0082 z m 6.536353,-4.280224 1.198484,-0.590016 0.98555,-1.064512 0.98555,-1.064507 0.40246,-1.051699 0.40247,-1.051694 0.11255,-0.95767 0.11255,-0.957665 -0.20531,-0.957333 -0.20531,-0.95734 -0.451,-0.953343 -0.45101,-0.953349 -0.87325,-0.88503 -0.873251,-0.885035 -1.179784,-0.55927 -1.179783,-0.559267 -1.494849,-0.07845 -1.494846,-0.07846 -0.981007,0.313474 -0.981006,0.313474 -0.931153,0.624896 -0.931153,0.624896 -0.588892,0.732801 -0.588897,0.732795 -0.474599,1.036663 -0.4746,1.036663 -0.08368,1.303983 -0.08368,1.303977 0.289516,0.990794 0.289521,0.990789 0.600731,0.987337 0.600731,0.987343 1.0457,0.818793 1.045694,0.818789 0.964902,0.339115 0.964904,0.339116 1.66363,-0.05051 1.663629,-0.05052 z m 18.253204,4.428765 -0.98268,-0.264299 -1.2294,-0.646031 -1.22938,-0.646025 -1.02171,-0.910635 -1.02172,-0.910636 -0.82319,-1.238258 -0.82319,-1.238265 -0.49346,-1.452591 -0.49345,-1.452595 -0.006,-2.101994 -0.006,-2.101988 0.50124,-1.455285 0.50123,-1.455285 0.82142,-1.235569 0.8214,-1.235571 1.02171,-0.91064 1.02171,-0.910635 1.22362,-0.642995 1.22363,-0.642994 1.07254,-0.279365 1.07254,-0.279362 1.92651,0.0021 1.9265,0.0021 1.00392,0.267148 1.00391,0.267149 1.11895,0.56795 1.11894,0.567944 1.1048,0.893931 1.10479,0.89393 0.92578,1.384147 0.92577,1.384146 0.39827,1.225726 0.39828,1.225726 0.0821,2.020633 0.0821,2.020628 -0.40037,1.483787 -0.40036,1.48378 -0.66922,1.137827 -0.66922,1.137832 -1.02876,1.048315 -1.02876,1.048316 -1.25602,0.737815 -1.25601,0.737817 -1.25303,0.380249 -1.25303,0.380249 -2.03704,-0.01202 -2.03704,-0.01203 z m 6.05821,-4.326975 1.05433,-0.485381 0.95692,-0.968189 0.95691,-0.968193 0.53398,-1.096687 0.53396,-1.096693 0.0813,-1.486548 0.0813,-1.486548 -0.32096,-0.981007 -0.32095,-0.981006 -0.44904,-0.776317 -0.44904,-0.776313 -0.82901,-0.729717 -0.829,-0.729712 -1.02744,-0.504573 -1.02744,-0.504568 h -1.91921 -1.91921 l -1.04515,0.489864 -1.04517,0.489868 -0.92134,0.861803 -0.92134,0.861807 -0.54851,1.115884 -0.54853,1.115884 -0.19752,1.125262 -0.19753,1.125261 0.203,0.976728 0.20298,0.976731 0.44016,0.949474 0.44016,0.949473 0.77941,0.845559 0.77941,0.845564 0.79393,0.465269 0.79392,0.465273 0.77023,0.251009 0.77024,0.251009 1.64503,-0.05245 1.64504,-0.05244 z m 10.18992,-1.644938 0.003,-6.260278 0.26173,-1.235108 0.26174,-1.235104 0.6947,-1.322796 0.6947,-1.322801 1.17476,-1.245658 1.17474,-1.245658 1.20141,-0.700101 1.20141,-0.700107 1.25304,-0.385747 1.25303,-0.385747 h 2.04956 2.04956 l 0.99278,0.291786 0.99277,0.29178 1.27948,0.660367 1.27948,0.660367 1.341,1.327826 1.34101,1.327822 0.4743,-0.56368 0.4743,-0.56368 0.24552,-0.245517 0.24552,-0.245517 0.77229,-0.626963 0.77229,-0.62697 1.09669,-0.549084 1.09669,-0.54909 0.99278,-0.294723 0.99278,-0.294724 h 2.08228 2.08229 l 1.32932,0.446238 1.32931,0.446237 1.07907,0.632669 1.07908,0.632667 1.11028,1.160173 1.1103,1.160169 0.52039,0.892055 0.52039,0.892055 0.46693,1.209939 0.46693,1.209933 0.0621,6.808621 0.0621,6.808627 h -2.02259 -2.02259 l -0.002,-5.986108 -0.002,-5.986104 -0.25613,-0.962162 -0.25614,-0.962163 -0.50001,-0.853196 -0.50001,-0.853201 -0.76764,-0.746059 -0.76764,-0.746059 -1.07869,-0.545872 -1.07868,-0.545868 h -2.0106 -2.01061 l -1.0868,0.548345 -1.0868,0.548348 -0.87958,0.878397 -0.87958,0.878398 -0.39196,0.766639 -0.39196,0.766639 -0.24413,0.913905 -0.24412,0.913909 -0.002,5.986104 -0.002,5.986108 h -2.00177 -2.00179 l -0.0545,-6.35167 -0.0545,-6.351668 -0.42105,-1.042156 -0.42105,-1.042155 -0.8364,-0.930282 -0.8364,-0.930278 -0.75312,-0.514044 -0.75311,-0.514044 -0.97978,-0.322339 -0.9798,-0.322333 -1.59393,0.07621 -1.59393,0.0762 -1.07959,0.528189 -1.07958,0.528189 -0.88094,0.880941 -0.88094,0.880942 -0.58364,1.232089 -0.58365,1.232082 -0.0544,6.443061 -0.0544,6.443061 h -2.00188 -2.00189 z m 51.08434,5.977295 -0.91391,-0.250289 -1.37086,-0.6902 -1.37087,-0.6902 -1.27947,-1.288361 -1.27947,-1.288362 -0.57743,-1.090573 -0.57743,-1.090569 -0.41814,-1.370867 -0.41813,-1.370862 -0.004,-1.645036 -0.004,-1.645036 0.24212,-1.005301 0.24212,-1.005297 0.73136,-1.536277 0.73136,-1.536278 1.31003,-1.296837 1.31003,-1.296843 1.36707,-0.691465 1.36706,-0.691459 1.0053,-0.265973 1.00531,-0.265977 h 1.91919 1.91922 l 1.0053,0.267179 1.0053,0.26718 1.33908,0.661423 1.33908,0.661419 1.34009,1.340091 1.34009,1.34009 0.66142,1.339081 0.66142,1.33908 0.26718,1.005301 0.26718,1.005302 -0.002,1.919205 -0.002,1.919211 -0.18593,0.822518 -0.18593,0.822518 -0.75668,1.536055 -0.7567,1.536055 -1.29405,1.297066 -1.29407,1.297061 -1.36879,0.691459 -1.36879,0.691464 -1.0053,0.265973 -1.0053,0.265973 -2.0106,-0.0142 -2.0106,-0.0142 z m 5.94041,-4.313005 1.0053,-0.46603 0.95402,-0.862372 0.95401,-0.862367 0.59963,-1.218021 0.59963,-1.218016 v -1.923055 -1.92305 l -0.48987,-1.04516 -0.48986,-1.04516 -0.86181,-0.921341 -0.8618,-0.921339 -1.20343,-0.592446 -1.20343,-0.592447 h -1.92305 -1.92306 l -1.05433,0.494066 -1.05433,0.494065 -0.96694,0.968188 -0.96694,0.968188 -0.53768,1.096693 -0.53767,1.096693 v 1.919205 1.919211 l 0.49646,1.010861 0.49645,1.010855 0.64135,0.749271 0.64134,0.749267 0.91916,0.589819 0.91916,0.58982 0.77615,0.252759 0.77617,0.252761 1.64503,-0.05245 1.64504,-0.05244 z"
       id="path2" /></g></svg>
